# xmcd
#
# Track frame offsets:
#	150
#	14565
#	31963
#	46885
#	52819
#	74148
#	95339
#	103222
#	116533
#
# Disc length: 1738 seconds
# Revision: 0
# Processed by: cddbd v1.5.2PL0 Copyright (c) Steve Scherf et al.
# Submitted via: dBpowerAMP V12.0
#
DISCID=7706c809
DTITLE=Wilson and White - Live @ The Blues Shack
DYEAR=2015
DGENRE=
TTITLE0=Groceries on The Shelf
TTITLE1=Spider Nest Blues
TTITLE2=The Red Rooster
TTITLE3=Cow Cow Blues
TTITLE4=Good Morning, School Girl
TTITLE5=When You Got a Good Friend
TTITLE6=Train Whistle Blues
TTITLE7=Love in Vain
TTITLE8=Cocaine Habit Blues
EXTD=
EXTT0=
EXTT1=
EXTT2=
EXTT3=
EXTT4=
EXTT5=
EXTT6=
EXTT7=
EXTT8=
PLAYORDER=
